<?xml version="1.0" encoding="UTF-8"?>
<svg xmlns="http://www.w3.org/2000/svg" width="1600" height="1200" viewBox="0 0 1600 1200">
  <defs>
    <linearGradient id="usecaseGradient" x1="0%" y1="0%" x2="100%" y2="100%">
      <stop offset="0%" style="stop-color:#E0F7FA;stop-opacity:1" />
      <stop offset="100%" style="stop-color:#B2EBF2;stop-opacity:1" />
    </linearGradient>
    <filter id="shadow">
      <feDropShadow dx="1" dy="1" stdDeviation="2" flood-opacity="0.2"/>
    </filter>
  </defs>
  
  <rect width="1600" height="1200" fill="#FFFFFF"/>
  
  <!-- Title -->
  <text x="800" y="35" text-anchor="middle" font-family="Arial" font-size="22" font-weight="bold" fill="#006064">UML Use Case Diagram - LMS Bahasa</text>
  
  <!-- System Boundary -->
  <rect x="300" y="60" width="1000" height="1080" fill="none" stroke="#555" stroke-width="2"/>
  <text x="800" y="82" text-anchor="middle" font-family="Arial" font-size="14" fill="#555">Learning Management System</text>
  
  <!-- ACTORS -->
  <g transform="translate(60, 220)">
    <circle cx="0" cy="0" r="12" fill="white" stroke="#333" stroke-width="2"/>
    <line x1="0" y1="12" x2="0" y2="50" stroke="#333" stroke-width="2"/>
    <line x1="-20" y1="30" x2="20" y2="30" stroke="#333" stroke-width="2"/>
    <line x1="0" y1="50" x2="-15" y2="75" stroke="#333" stroke-width="2"/>
    <line x1="0" y1="50" x2="15" y2="75" stroke="#333" stroke-width="2"/>
    <text x="0" y="95" text-anchor="middle" font-family="Arial" font-size="12" fill="#333">Admin</text>
  </g>
  
  <g transform="translate(60, 780)">
    <circle cx="0" cy="0" r="12" fill="white" stroke="#333" stroke-width="2"/>
    <line x1="0" y1="12" x2="0" y2="50" stroke="#333" stroke-width="2"/>
    <line x1="-20" y1="30" x2="20" y2="30" stroke="#333" stroke-width="2"/>
    <line x1="0" y1="50" x2="-15" y2="75" stroke="#333" stroke-width="2"/>
    <line x1="0" y1="50" x2="15" y2="75" stroke="#333" stroke-width="2"/>
    <text x="0" y="95" text-anchor="middle" font-family="Arial" font-size="12" fill="#333">Guru</text>
  </g>
  
  <g transform="translate(1540, 380)">
    <circle cx="0" cy="0" r="12" fill="white" stroke="#333" stroke-width="2"/>
    <line x1="0" y1="12" x2="0" y2="50" stroke="#333" stroke-width="2"/>
    <line x1="-20" y1="30" x2="20" y2="30" stroke="#333" stroke-width="2"/>
    <line x1="0" y1="50" x2="-15" y2="75" stroke="#333" stroke-width="2"/>
    <line x1="0" y1="50" x2="15" y2="75" stroke="#333" stroke-width="2"/>
    <text x="0" y="95" text-anchor="middle" font-family="Arial" font-size="12" fill="#333">Murid</text>
  </g>
  
  <!-- USE CASES - Admin -->
  <ellipse cx="380" cy="200" rx="75" ry="25" fill="url(#usecaseGradient)" stroke="#00838F" stroke-width="2" filter="url(#shadow)"/>
  <text x="380" y="195" text-anchor="middle" font-family="Arial" font-size="11" fill="#006064">Verifikasi</text>
  <text x="380" y="210" text-anchor="middle" font-family="Arial" font-size="11" fill="#006064">Pendaftaran</text>
  
  <ellipse cx="380" cy="285" rx="75" ry="25" fill="url(#usecaseGradient)" stroke="#00838F" stroke-width="2" filter="url(#shadow)"/>
  <text x="380" y="280" text-anchor="middle" font-family="Arial" font-size="11" fill="#006064">Kelola Akun</text>
  <text x="380" y="295" text-anchor="middle" font-family="Arial" font-size="11" fill="#006064">Guru</text>
  
  <ellipse cx="380" cy="370" rx="75" ry="25" fill="url(#usecaseGradient)" stroke="#00838F" stroke-width="2" filter="url(#shadow)"/>
  <text x="380" y="365" text-anchor="middle" font-family="Arial" font-size="11" fill="#006064">Kelola Akun</text>
  <text x="380" y="380" text-anchor="middle" font-family="Arial" font-size="11" fill="#006064">Murid</text>
  
  <ellipse cx="380" cy="455" rx="75" ry="25" fill="url(#usecaseGradient)" stroke="#00838F" stroke-width="2" filter="url(#shadow)"/>
  <text x="380" y="460" text-anchor="middle" font-family="Arial" font-size="12" fill="#006064">Kelola Kelas</text>
  
  <ellipse cx="580" cy="455" rx="70" ry="25" fill="url(#usecaseGradient)" stroke="#00838F" stroke-width="2" filter="url(#shadow)"/>
  <text x="580" y="460" text-anchor="middle" font-family="Arial" font-size="12" fill="#006064">Enrollment</text>
  
  <!-- USE CASES - Murid -->
  <ellipse cx="1000" cy="200" rx="70" ry="25" fill="url(#usecaseGradient)" stroke="#00838F" stroke-width="2" filter="url(#shadow)"/>
  <text x="1000" y="205" text-anchor="middle" font-family="Arial" font-size="12" fill="#006064">Login</text>
  
  <ellipse cx="1000" cy="275" rx="70" ry="25" fill="url(#usecaseGradient)" stroke="#00838F" stroke-width="2" filter="url(#shadow)"/>
  <text x="1000" y="280" text-anchor="middle" font-family="Arial" font-size="12" fill="#006064">Register</text>
  
  <ellipse cx="1000" cy="350" rx="70" ry="25" fill="url(#usecaseGradient)" stroke="#00838F" stroke-width="2" filter="url(#shadow)"/>
  <text x="1000" y="345" text-anchor="middle" font-family="Arial" font-size="11" fill="#006064">Upload Bukti</text>
  
  <ellipse cx="1000" cy="425" rx="75" ry="25" fill="url(#usecaseGradient)" stroke="#00838F" stroke-width="2" filter="url(#shadow)"/>
  <text x="1000" y="430" text-anchor="middle" font-family="Arial" font-size="11" fill="#006064">Akses Materi</text>
  
  <ellipse cx="1000" cy="500" rx="75" ry="25" fill="url(#usecaseGradient)" stroke="#00838F" stroke-width="2" filter="url(#shadow)"/>
  <text x="1000" y="505" text-anchor="middle" font-family="Arial" font-size="11" fill="#006064">Kerjakan Kuis</text>
  
  <ellipse cx="1000" cy="575" rx="75" ry="25" fill="url(#usecaseGradient)" stroke="#00838F" stroke-width="2" filter="url(#shadow)"/>
  <text x="1000" y="580" text-anchor="middle" font-family="Arial" font-size="11" fill="#006064">Kumpul Tugas</text>
  
  <ellipse cx="1000" cy="650" rx="75" ry="25" fill="url(#usecaseGradient)" stroke="#00838F" stroke-width="2" filter="url(#shadow)"/>
  <text x="1000" y="655" text-anchor="middle" font-family="Arial" font-size="11" fill="#006064">Lihat Nilai</text>
  
  <ellipse cx="1000" cy="725" rx="75" ry="25" fill="url(#usecaseGradient)" stroke="#00838F" stroke-width="2" filter="url(#shadow)"/>
  <text x="1000" y="720" text-anchor="middle" font-family="Arial" font-size="11" fill="#006064">Download</text>
  <text x="1000" y="735" text-anchor="middle" font-family="Arial" font-size="11" fill="#006064">Sertifikat</text>
  
  <!-- USE CASES - Guru -->
  <ellipse cx="380" cy="720" rx="75" ry="25" fill="url(#usecaseGradient)" stroke="#00838F" stroke-width="2" filter="url(#shadow)"/>
  <text x="380" y="715" text-anchor="middle" font-family="Arial" font-size="11" fill="#006064">Kelola</text>
  <text x="380" y="730" text-anchor="middle" font-family="Arial" font-size="11" fill="#006064">Pertemuan</text>
  
  <ellipse cx="380" cy="830" rx="75" ry="25" fill="url(#usecaseGradient)" stroke="#00838F" stroke-width="2" filter="url(#shadow)"/>
  <text x="380" y="835" text-anchor="middle" font-family="Arial" font-size="11" fill="#006064">Upload Materi</text>
  
  <ellipse cx="680" cy="720" rx="70" ry="25" fill="url(#usecaseGradient)" stroke="#00838F" stroke-width="2" filter="url(#shadow)"/>
  <text x="680" y="725" text-anchor="middle" font-family="Arial" font-size="11" fill="#006064">Buat Kuis</text>
  
  <ellipse cx="680" cy="830" rx="70" ry="25" fill="url(#usecaseGradient)" stroke="#00838F" stroke-width="2" filter="url(#shadow)"/>
  <text x="680" y="835" text-anchor="middle" font-family="Arial" font-size="11" fill="#006064">Kelola Tugas</text>
  
  <ellipse cx="380" cy="940" rx="75" ry="25" fill="url(#usecaseGradient)" stroke="#00838F" stroke-width="2" filter="url(#shadow)"/>
  <text x="380" y="935" text-anchor="middle" font-family="Arial" font-size="11" fill="#006064">Generate</text>
  <text x="380" y="950" text-anchor="middle" font-family="Arial" font-size="11" fill="#006064">Sertifikat</text>
  
  <ellipse cx="680" cy="940" rx="70" ry="25" fill="url(#usecaseGradient)" stroke="#00838F" stroke-width="2" filter="url(#shadow)"/>
  <text x="680" y="935" text-anchor="middle" font-family="Arial" font-size="11" fill="#006064">Generate</text>
  <text x="680" y="950" text-anchor="middle" font-family="Arial" font-size="11" fill="#006064">Rapor</text>
  
  <ellipse cx="950" cy="830" rx="70" ry="25" fill="url(#usecaseGradient)" stroke="#00838F" stroke-width="2" filter="url(#shadow)"/>
  <text x="950" y="835" text-anchor="middle" font-family="Arial" font-size="12" fill="#006064">Attendance</text>
  
  <!-- Settings -->
  <ellipse cx="550" cy="1070" rx="75" ry="25" fill="url(#usecaseGradient)" stroke="#00838F" stroke-width="2" filter="url(#shadow)"/>
  <text x="550" y="1075" text-anchor="middle" font-family="Arial" font-size="12" fill="#006064">Manage Profile</text>
  
  <ellipse cx="800" cy="1070" rx="75" ry="25" fill="url(#usecaseGradient)" stroke="#00838F" stroke-width="2" filter="url(#shadow)"/>
  <text x="800" y="1075" text-anchor="middle" font-family="Arial" font-size="12" fill="#006064">Change Password</text>
  
  <!-- ASSOCIATION LINES -->
  <g stroke="#329696" stroke-width="1">
    <!-- Admin -->
    <line x1="100" y1="225" x2="300" y2="200"/>
    <line x1="100" y1="235" x2="300" y2="285"/>
    <line x1="100" y1="245" x2="300" y2="370"/>
    <line x1="100" y1="255" x2="300" y2="455"/>
    <line x1="100" y1="265" x2="505" y2="455"/>
    
    <!-- Murid -->
    <line x1="1500" y1="385" x2="1075" y2="200"/>
    <line x1="1500" y1="395" x2="1075" y2="275"/>
    <line x1="1500" y1="405" x2="1075" y2="350"/>
    <line x1="1500" y1="415" x2="1080" y2="425"/>
    <line x1="1500" y1="425" x2="1080" y2="500"/>
    <line x1="1500" y1="435" x2="1080" y2="575"/>
    <line x1="1500" y1="445" x2="1080" y2="650"/>
    <line x1="1500" y1="455" x2="1080" y2="725"/>
    
    <!-- Guru -->
    <line x1="100" y1="785" x2="300" y2="720"/>
    <line x1="100" y1="795" x2="300" y2="830"/>
    <line x1="100" y1="805" x2="300" y2="940"/>
    <line x1="100" y1="790" x2="600" y2="720"/>
    <line x1="100" y1="800" x2="600" y2="830"/>
    <line x1="100" y1="810" x2="600" y2="940"/>
    <line x1="100" y1="788" x2="875" y2="830"/>
    
    <!-- Settings -->
    <line x1="100" y1="275" x2="470" y2="1070"/>
    <line x1="100" y1="815" x2="470" y2="1070"/>
    <line x1="1500" y1="465" x2="880" y2="1070"/>
  </g>
  
  <!-- INCLUDE RELATIONSHIPS with arrows -->
  <g stroke="#CCC" stroke-width="1" stroke-dasharray="4,3">
    <!-- Kelola Pertemuan -> Buat Kuis -->
    <line x1="455" y1="720" x2="605" y2="720"/>
    <polygon points="605,720 595,715 595,725" fill="#CCC"/>
    <text x="520" y="710" font-family="Arial" font-size="9" fill="#CCC">&lt;&lt;include&gt;&gt;</text>
    
    <!-- Kelola Pertemuan -> Attendance -->
    <line x1="455" y1="730" x2="875" y2="830"/>
    <polygon points="875,830 865,825 865,835" fill="#CCC"/>
    
    <!-- Generate Sertifikat -> Generate Rapor -->
    <line x1="455" y1="940" x2="610" y2="940"/>
    <polygon points="610,940 600,935 600,945" fill="#CCC"/>
    <text x="520" y="930" font-family="Arial" font-size="9" fill="#CCC">&lt;&lt;include&gt;&gt;</text>
    
    <!-- Upload Bukti -> Register -->
    <line x1="1000" y1="325" x2="1000" y2="300"/>
    <polygon points="1000,300 995,310 1005,310" fill="#CCC"/>
    <text x="1010" y="315" font-family="Arial" font-size="9" fill="#CCC">&lt;&lt;include&gt;&gt;</text>
    
    <!-- Kelola Kelas -> Enrollment -->
    <line x1="455" y1="455" x2="510" y2="455"/>
    <polygon points="510,455 500,450 500,460" fill="#CCC"/>
    <text x="475" y="445" font-family="Arial" font-size="9" fill="#CCC">&lt;&lt;include&gt;&gt;</text>
  </g>
</svg>
